<svg xmlns="http://www.w3.org/2000/svg" viewBox="0 0 64 64">
  <rect width="64" height="64" fill="white" rx="8"/>
  <svg x="4" y="2" width="56" height="60" viewBox="0 -2 160 483" preserveAspectRatio="xMidYMid meet">
    <g transform="translate(0, 0)"><line x1="80" y1="-2" x2="80" y2="72" stroke="#cbd5e1" stroke-dasharray="3 3"/><path d="M19.874517374517364,13.897683397683396 L34.19884169884169,13.897683397683396 L34.19884169884169,36.48455598455599 L19.874517374517364,36.48455598455599 Q14.874517374517364,36.48455598455599 14.874517374517364,31.48455598455599 L14.874517374517364,18.897683397683394 Q14.874517374517364,13.897683397683396 19.874517374517364,13.897683397683396 Z" fill="#f1f5f9" transform="rotate(35.9, 34.19884169884169, 36.48455598455599)"/><path d="M125.80115830115831,13.897683397683396 L140.12548262548265,13.897683397683396 Q145.12548262548265,13.897683397683396 145.12548262548265,18.897683397683394 L145.12548262548265,31.48455598455599 Q145.12548262548265,36.48455598455599 140.12548262548265,36.48455598455599 L125.80115830115831,36.48455598455599 Z" fill="#f1f5f9" transform="rotate(-35.9, 125.80115830115831, 36.48455598455599)"/><path d="M34.19884169884169,6 Q34.19884169884169,3 37.19884169884169,3 Q80,5 122.80115830115831,3 Q125.80115830115831,3 125.80115830115831,6 Q123.80115830115831,35 125.80115830115831,64 Q125.80115830115831,67 122.80115830115831,67 Q80,65 37.19884169884169,67 Q34.19884169884169,67 34.19884169884169,64 Q36.19884169884169,35 34.19884169884169,6 Z" fill="#f1f5f9" stroke="#64748b" stroke-width="1"/><ellipse cx="46.621621621621614" cy="25.19111969111969" rx="8.156370656370658" ry="17.19111969111969" fill="none" stroke="#64748b" stroke-width="1" opacity="0.6"/><ellipse cx="113.37837837837839" cy="25.19111969111969" rx="8.156370656370658" ry="17.19111969111969" fill="none" stroke="#64748b" stroke-width="1" opacity="0.6"/><text x="80" y="35" dominant-baseline="middle" text-anchor="middle" font-size="12" font-weight="bold" fill="#1e293b" font-family="Inter, system-ui, sans-serif">T10</text></g><g transform="translate(0, 89)"><line x1="80" y1="-2" x2="80" y2="77" stroke="#cbd5e1" stroke-dasharray="3 3"/><path d="M23.388030888030883,14.901544401544403 L29.430501930501926,14.901544401544403 L29.430501930501926,38.74324324324324 L23.388030888030883,38.74324324324324 Q18.388030888030883,38.74324324324324 18.388030888030883,33.74324324324324 L18.388030888030883,19.901544401544403 Q18.388030888030883,14.901544401544403 23.388030888030883,14.901544401544403 Z" fill="#f1f5f9" transform="rotate(23.5, 29.430501930501926, 38.74324324324324)"/><path d="M130.56949806949808,14.901544401544403 L136.61196911196913,14.901544401544403 Q141.61196911196913,14.901544401544403 141.61196911196913,19.901544401544403 L141.61196911196913,33.74324324324324 Q141.61196911196913,38.74324324324324 136.61196911196913,38.74324324324324 L130.56949806949808,38.74324324324324 Z" fill="#f1f5f9" transform="rotate(-23.5, 130.56949806949808, 38.74324324324324)"/><path d="M29.430501930501926,6 Q29.430501930501926,3 32.430501930501926,3 Q80,5 127.56949806949808,3 Q130.56949806949808,3 130.56949806949808,6 Q128.56949806949808,37.5 130.56949806949808,69 Q130.56949806949808,72 127.56949806949808,72 Q80,70 32.430501930501926,72 Q29.430501930501926,72 29.430501930501926,69 Q31.430501930501926,37.5 29.430501930501926,6 Z" fill="#f1f5f9" stroke="#64748b" stroke-width="1"/><ellipse cx="41.22586872586872" cy="26.822393822393824" rx="9.787644787644789" ry="18.822393822393824" fill="none" stroke="#64748b" stroke-width="1" opacity="0.6"/><ellipse cx="118.77413127413128" cy="26.822393822393824" rx="9.787644787644789" ry="18.822393822393824" fill="none" stroke="#64748b" stroke-width="1" opacity="0.6"/><text x="80" y="37.5" dominant-baseline="middle" text-anchor="middle" font-size="12" font-weight="bold" fill="#1e293b" font-family="Inter, system-ui, sans-serif">T11</text></g><g transform="translate(0, 180)"><line x1="80" y1="-2" x2="80" y2="81" stroke="#cbd5e1" stroke-dasharray="3 3"/><path d="M26.274131274131268,14.901544401544403 L27.799227799227793,14.901544401544403 L27.799227799227793,38.74324324324324 L26.274131274131268,38.74324324324324 Q21.274131274131268,38.74324324324324 21.274131274131268,33.74324324324324 L21.274131274131268,19.901544401544403 Q21.274131274131268,14.901544401544403 26.274131274131268,14.901544401544403 Z" fill="#f1f5f9" transform="rotate(13.1, 27.799227799227793, 38.74324324324324)"/><path d="M132.2007722007722,14.901544401544403 L133.72586872586874,14.901544401544403 Q138.72586872586874,14.901544401544403 138.72586872586874,19.901544401544403 L138.72586872586874,33.74324324324324 Q138.72586872586874,38.74324324324324 133.72586872586874,38.74324324324324 L132.2007722007722,38.74324324324324 Z" fill="#f1f5f9" transform="rotate(-13.1, 132.2007722007722, 38.74324324324324)"/><path d="M27.799227799227793,6 Q27.799227799227793,3 30.799227799227793,3 Q80,5 129.2007722007722,3 Q132.2007722007722,3 132.2007722007722,6 Q130.2007722007722,39.5 132.2007722007722,73 Q132.2007722007722,76 129.2007722007722,76 Q80,74 30.799227799227793,76 Q27.799227799227793,76 27.799227799227793,73 Q29.799227799227793,39.5 27.799227799227793,6 Z" fill="#f1f5f9" stroke="#64748b" stroke-width="1"/><ellipse cx="39.84555984555984" cy="26.822393822393824" rx="10.415057915057917" ry="18.822393822393824" fill="none" stroke="#64748b" stroke-width="1" opacity="0.6"/><ellipse cx="120.15444015444015" cy="26.822393822393824" rx="10.415057915057917" ry="18.822393822393824" fill="none" stroke="#64748b" stroke-width="1" opacity="0.6"/><text x="80" y="39.5" dominant-baseline="middle" text-anchor="middle" font-size="12" font-weight="bold" fill="#1e293b" font-family="Inter, system-ui, sans-serif">T12</text></g><g transform="translate(0, 274)"><line x1="80" y1="-2" x2="80" y2="84" stroke="#cbd5e1" stroke-dasharray="3 3"/><path d="M8.204633204633204,16.03088803088803 L23.783783783783782,16.03088803088803 L23.783783783783782,38.617760617760624 L8.204633204633204,38.617760617760624 Q3.204633204633204,38.617760617760624 3.204633204633204,33.617760617760624 L3.204633204633204,21.03088803088803 Q3.204633204633204,16.03088803088803 8.204633204633204,16.03088803088803 Z" fill="#f1f5f9"/><path d="M136.21621621621622,16.03088803088803 L151.79536679536682,16.03088803088803 Q156.79536679536682,16.03088803088803 156.79536679536682,21.03088803088803 L156.79536679536682,33.617760617760624 Q156.79536679536682,38.617760617760624 151.79536679536682,38.617760617760624 L136.21621621621622,38.617760617760624 Z" fill="#f1f5f9"/><path d="M23.783783783783782,7 Q23.783783783783782,3 27.783783783783782,3 Q80,5 132.21621621621622,3 Q136.21621621621622,3 136.21621621621622,7 Q133.21621621621622,41 136.21621621621622,75 Q136.21621621621622,79 132.21621621621622,79 Q80,77 27.783783783783782,79 Q23.783783783783782,79 23.783783783783782,75 Q26.783783783783782,41 23.783783783783782,7 Z" fill="#f1f5f9" stroke="#64748b" stroke-width="1"/><ellipse cx="40.72393822393822" cy="27.324324324324326" rx="9.411196911196912" ry="19.324324324324326" fill="none" stroke="#475569" stroke-width="1.5" opacity="0.6"/><ellipse cx="119.27606177606178" cy="27.324324324324326" rx="9.411196911196912" ry="19.324324324324326" fill="none" stroke="#475569" stroke-width="1.5" opacity="0.6"/><text x="80" y="41" dominant-baseline="middle" text-anchor="middle" font-size="12" font-weight="bold" fill="#1e293b" font-family="Inter, system-ui, sans-serif">L1</text></g><g transform="translate(0, 374)"><line x1="80" y1="-2" x2="80" y2="86" stroke="#cbd5e1" stroke-dasharray="3 3"/><path d="M-7.229729729729733,16.03088803088803 L20.646718146718143,16.03088803088803 L20.646718146718143,37.36293436293437 L-7.229729729729733,37.36293436293437 Q-12.229729729729733,37.36293436293437 -12.229729729729733,32.36293436293437 L-12.229729729729733,21.03088803088803 Q-12.229729729729733,16.03088803088803 -7.229729729729733,16.03088803088803 Z" fill="#f1f5f9"/><path d="M139.35328185328186,16.03088803088803 L167.22972972972974,16.03088803088803 Q172.22972972972974,16.03088803088803 172.22972972972974,21.03088803088803 L172.22972972972974,32.36293436293437 Q172.22972972972974,37.36293436293437 167.22972972972974,37.36293436293437 L139.35328185328186,37.36293436293437 Z" fill="#f1f5f9"/><path d="M20.646718146718143,7 Q20.646718146718143,3 24.646718146718143,3 Q80,5 135.35328185328186,3 Q139.35328185328186,3 139.35328185328186,7 Q136.35328185328186,42 139.35328185328186,77 Q139.35328185328186,81 135.35328185328186,81 Q80,79 24.646718146718143,81 Q20.646718146718143,81 20.646718146718143,77 Q23.646718146718143,42 20.646718146718143,7 Z" fill="#f1f5f9" stroke="#64748b" stroke-width="1"/><ellipse cx="39.46911196911197" cy="26.6969111969112" rx="10.28957528957529" ry="18.6969111969112" fill="none" stroke="#475569" stroke-width="1.5" opacity="0.6"/><ellipse cx="120.53088803088804" cy="26.6969111969112" rx="10.28957528957529" ry="18.6969111969112" fill="none" stroke="#475569" stroke-width="1.5" opacity="0.6"/><text x="80" y="42" dominant-baseline="middle" text-anchor="middle" font-size="12" font-weight="bold" fill="#1e293b" font-family="Inter, system-ui, sans-serif">L2</text></g>
  </svg>
</svg>